<svg xmlns="http://www.w3.org/2000/svg" width="52.648" height="58" viewBox="0 0 52.648 58"><g id="Group_5481" data-name="Group 5481" transform="translate(-860.566 -162.363)"><path id="Path_5280" data-name="Path 5280" d="M526.177,280.539a20.661,20.661,0,0,1,29.216,0,20.662,20.662,0,0,1,0-29.216,20.662,20.662,0,0,1-29.216,0,20.662,20.662,0,0,1,0,29.216" transform="translate(311.29 377.873) rotate(-45)" fill="none" stroke="#c8e2eb" stroke-width="1"></path><path id="Path_5314" data-name="Path 5314" d="M526.177,265.931a10.331,10.331,0,0,1,14.608,0,10.331,10.331,0,0,1,0-14.608,10.331,10.331,0,0,1-14.608,0,10.331,10.331,0,0,1,0,14.608" transform="translate(342.279 403.884) rotate(-45)" fill="#c8e2eb" stroke="#c8e2eb" stroke-width="1"></path></g></svg>