<svg xmlns="http://www.w3.org/2000/svg" width="95" height="95" viewBox="0 0 95 95"><g id="Group_5488" data-name="Group 5488" transform="translate(-432 -2403)"><circle id="Ellipse_26" data-name="Ellipse 26" cx="47.5" cy="47.5" r="47.5" transform="translate(432 2403)" fill="#4545d0"></circle><g id="tratamiento-capilar" transform="translate(452.054 2424.202)"><path id="Path_5302" data-name="Path 5302" d="M30.245,47.684c3.586-3.294,5.962-8.225,5.962-11.314,0-.183,0-.393-.008-.613a14.839,14.839,0,0,0,4.473-7.807A4.416,4.416,0,0,1,43.3,29.217a1.132,1.132,0,1,0,1.6-1.6,4.382,4.382,0,0,1,0-6.263,1.131,1.131,0,1,0-1.6-1.6,4.5,4.5,0,0,1-1.546,1.009,9.163,9.163,0,0,0,.112-1.364c0-3.588-.607-6.173-3.683-8.694-.216-.313-.752-1.067-1.534-2.022a4.4,4.4,0,0,1,3.257,1.3,1.131,1.131,0,1,0,1.6-1.6,4.382,4.382,0,0,1,0-6.264,1.132,1.132,0,1,0-1.6-1.6,4.381,4.381,0,0,1-3.132,1.317A4.381,4.381,0,0,1,33.642.524a1.132,1.132,0,1,0-1.6,1.6,4.412,4.412,0,0,1,1.31,3.054C30.563,2.623,26.824.164,22.722.164h-.1c-7.209.072-9.377,3.507-9.956,4.865a21.041,21.041,0,0,0-3.087,2.1,1.118,1.118,0,0,0-1.358.163,4.395,4.395,0,0,1-6.28,0,1.135,1.135,0,0,0-1.6,1.6,4.393,4.393,0,0,1,1.32,3.14,4.394,4.394,0,0,1-1.32,3.14,1.135,1.135,0,1,0,1.6,1.6A4.464,4.464,0,0,1,4.03,15.6,10.479,10.479,0,0,0,3.4,19.4a12.768,12.768,0,0,0,1.019,4.595c-.658,1.89-2.078,8.146,4.873,14.22a19.876,19.876,0,0,0,5.727,9.471c.213,3.181,0,6.025-1.1,7.128a1.132,1.132,0,0,0,1.6,1.6c1.4-1.4,1.842-4.073,1.832-6.947a10.105,10.105,0,0,0,5.288,1.614,10.112,10.112,0,0,0,5.289-1.622c-.01,2.875.433,5.544,1.832,6.947a1.131,1.131,0,0,0,1.6-1.6C30.252,53.705,30.033,50.863,30.245,47.684ZM11.4,37.253c.5-2.185,3.1-11.757,10.5-14.532a1.1,1.1,0,0,0,.155-.088l.073.041C28.5,25.859,33.372,31.9,33.891,34.765c.035.584.052,1.131.052,1.605,0,3.991-5.353,12.446-11.314,12.446C17.078,48.816,12.058,41.485,11.4,37.253ZM6.53,24.778c1.441-.656,5.99-2.992,8.064-7.137a1.132,1.132,0,1,0-2.025-1.011c-1.5,3-4.721,4.947-6.347,5.779a11.106,11.106,0,0,1-.564-3.01,7.262,7.262,0,0,1,.809-3.7,4.471,4.471,0,0,1,1.751,1.072,1.134,1.134,0,0,0,1.6-1.6,4.39,4.39,0,0,1-1.283-3.52,13.391,13.391,0,0,1,4.434-4.186,12.476,12.476,0,0,0,4.8,5.625,7.461,7.461,0,0,0-.255,4.65,7.1,7.1,0,0,0,2.3,3.433c-6.466,3.184-9.277,10.6-10.279,14.168-4.631-4.853-3.479-9.3-3.015-10.561ZM3.814,10.761a6.558,6.558,0,0,0,2.538,0,6.556,6.556,0,0,0,0,2.538,6.593,6.593,0,0,0-2.538,0,6.556,6.556,0,0,0,0-2.538ZM38.042,6.52a6.565,6.565,0,0,0-2.529,0,6.567,6.567,0,0,0,0-2.53,6.547,6.547,0,0,0,2.529,0,6.584,6.584,0,0,0,0,2.53ZM22.722,2.427c3.788,0,7.367,2.679,9.917,5.22a4.669,4.669,0,0,1-.6.74,1.131,1.131,0,1,0,1.6,1.6,4.625,4.625,0,0,1,.668-.548A31.509,31.509,0,0,1,36.4,12.1a1.137,1.137,0,0,0,.236.258c2.511,2.008,2.97,3.946,2.97,7.037a7.582,7.582,0,0,1-.192,1.6,4.433,4.433,0,0,1-2.376-1.245,1.131,1.131,0,1,0-1.6,1.6,4.382,4.382,0,0,1,0,6.263,1.131,1.131,0,0,0,1.6,1.6,4.533,4.533,0,0,1,1.192-.837,12.649,12.649,0,0,1-2.508,4.594C34.1,28.858,28.748,23.45,23.136,20.642A6.106,6.106,0,0,1,19.7,17.122a5.172,5.172,0,0,1,.179-3.195c2.6.694,10.428,3.243,13.027,9.305a1.131,1.131,0,1,0,2.079-.891C31.6,14.44,21.21,11.879,19.646,11.535a10.361,10.361,0,0,1-4.875-5.693c.365-.792,2-3.362,7.87-3.421Zm18.71,20.8a6.567,6.567,0,0,0,0,2.53,6.549,6.549,0,0,0-2.53,0,6.549,6.549,0,0,0,0-2.53A6.567,6.567,0,0,0,41.432,23.225Zm0,0" fill="#fff"></path><path id="Path_5303" data-name="Path 5303" d="M336.971,329.207h-.678c1.029-4.553-2.862-8.534-3.048-8.72a1.131,1.131,0,0,0-1.889,1.107,3.261,3.261,0,0,1-.26,2.376,2.449,2.449,0,0,1-2.043.712,4.48,4.48,0,0,0-3.752,1.568,4.694,4.694,0,0,0-.9,2.958h-1.008A3.394,3.394,0,0,0,320,332.6v4.525a3.394,3.394,0,0,0,3.394,3.394h13.577a3.394,3.394,0,0,0,3.394-3.394V332.6A3.393,3.393,0,0,0,336.971,329.207Zm-9.888-1.565a2.381,2.381,0,0,1,1.969-.7,4.536,4.536,0,0,0,3.847-1.611,3.89,3.89,0,0,0,.47-.809,6.045,6.045,0,0,1,.59,4.683h-7.294A2.527,2.527,0,0,1,327.083,327.642Zm11.02,9.485a1.131,1.131,0,0,1-1.132,1.131H323.394a1.131,1.131,0,0,1-1.131-1.131V332.6a1.131,1.131,0,0,1,1.131-1.131h13.577A1.131,1.131,0,0,1,338.1,332.6Zm0,0" transform="translate(-283.793 -283.786)" fill="#fff"></path><path id="Path_5304" data-name="Path 5304" d="M370.183,440.16h-9.051a1.131,1.131,0,1,0,0,2.263h9.051a1.131,1.131,0,0,0,0-2.263Zm0,0" transform="translate(-319.267 -390.213)" fill="#fff"></path></g></g></svg>