<svg xmlns="http://www.w3.org/2000/svg" width="50" height="50" viewBox="0 0 50 50"><g id="Group_5559" data-name="Group 5559" transform="translate(0.766 0)"><g id="Group_258" data-name="Group 258" transform="translate(-0.445 0)"><g id="Rectangle_176" data-name="Rectangle 176" transform="translate(-0.321 0)" fill="none" stroke="#fff" stroke-width="2"><rect width="50" height="50" rx="25" stroke="none"></rect><rect x="1" y="1" width="48" height="48" rx="24" fill="none"></rect></g></g><path id="flecha-derecha" d="M20.081,3.653,16.72.257a.869.869,0,0,0-1.233,0h0a.869.869,0,0,0,0,1.225L18.579,4.6H.869A.869.869,0,0,0,0,5.468H0a.869.869,0,0,0,.869.869H18.631L15.487,9.472a.869.869,0,0,0,0,1.233h0a.869.869,0,0,0,1.233,0l3.361-3.37A2.606,2.606,0,0,0,20.081,3.653Z" transform="translate(13.437 28.62) rotate(-45)" fill="#fff" stroke="#fff" stroke-width="1"></path></g></svg>