<svg xmlns="http://www.w3.org/2000/svg" xmlns:xlink="http://www.w3.org/1999/xlink" id="Group_275" data-name="Group 275" width="116.165" height="66.792" viewBox="0 0 116.165 66.792"><defs><clipPath id="clip-path"><rect id="Rectangle_160" data-name="Rectangle 160" width="116.165" height="66.792" fill="#4545d0"></rect></clipPath></defs><path id="Path_72" data-name="Path 72" d="M11.657,224.4,6.733,235.793,1.817,224.4H0v14.054H1.87V229.24l3.98,9.225H7.614l3.991-9.228v9.219h1.86V224.4Z" transform="translate(0 -186.882)" fill="#4545d0"></path><path id="Path_73" data-name="Path 73" d="M90.528,238.464h2.211l2.216-3.505.775-1.234,3.968-6.266v11h1.86V224.4H99.42Z" transform="translate(-75.392 -186.882)" fill="#4545d0"></path><g id="Group_242" data-name="Group 242"><g id="Group_241" data-name="Group 241" clip-path="url(#clip-path)"><path id="Path_74" data-name="Path 74" d="M177.247,231.834a7.071,7.071,0,0,0-3.55-1.96c-2.023-.569-3.028-1.352-2.986-2.327a1.853,1.853,0,0,1,.885-1.612,3.7,3.7,0,0,1,2.084-.441,3.136,3.136,0,0,1,2.278.955l.216.234,1.374-1.274-.217-.233a4.981,4.981,0,0,0-3.565-1.541,5.424,5.424,0,0,0-3.145.71,3.629,3.629,0,0,0-1.778,3.119,3.178,3.178,0,0,0,.805,2.258,7.109,7.109,0,0,0,3.549,1.95c2.024.57,3.028,1.365,2.986,2.362a1.875,1.875,0,0,1-.789,1.4,3.132,3.132,0,0,1-2.178.65,3.772,3.772,0,0,1-1.6-.439,2.148,2.148,0,0,1-1.069-1.131l-.11-.3-1.757.638.111.3a3.95,3.95,0,0,0,1.813,2.062,5.462,5.462,0,0,0,2.52.725c.088.007.177.01.267.01a4.943,4.943,0,0,0,3.182-1.062,3.7,3.7,0,0,0,1.484-2.777,3.231,3.231,0,0,0-.8-2.276Z" transform="translate(-140.474 -186.236)" fill="#4545d0"></path><path id="Path_75" data-name="Path 75" d="M234.342,226.271h3.525v12.193h1.87V226.271h3.516V224.4h-8.911Z" transform="translate(-195.161 -186.882)" fill="#4545d0"></path><path id="Path_76" data-name="Path 76" d="M308.465,226.271V224.4h-7.489v14.063h7.489v-1.87h-5.62v-4.246h4.441v-1.87h-4.441v-4.208Z" transform="translate(-250.653 -186.882)" fill="#4545d0"></path><path id="Path_77" data-name="Path 77" d="M365.715,232.145a4,4,0,0,0,1.416-6.565,3.85,3.85,0,0,0-2.826-1.179h-5.142v14.054h1.869V232.4h2.706l3.151,6.069h2.1Zm-4.682-5.874h3.273a2.128,2.128,0,1,1,0,4.256h-3.273Z" transform="translate(-299.113 -186.882)" fill="#4545d0"></path><path id="Path_78" data-name="Path 78" d="M471.051,230.479H466.61v-4.208h5.62V224.4H464.74v14.063h1.87v-6.115h4.441Z" transform="translate(-387.037 -186.882)" fill="#4545d0"></path><path id="Path_79" data-name="Path 79" d="M494.757,238.464h2.211l2.217-3.505.775-1.234,3.967-6.265v11h1.861V224.4h-2.138Z" transform="translate(-412.035 -186.882)" fill="#4545d0"></path><path id="Path_80" data-name="Path 80" d="M581.006,223.618a7.162,7.162,0,0,0,0,14.325,7.067,7.067,0,0,0,3.191-.754l.175-.088v-2.2l-.491.32a5.189,5.189,0,0,1-2.875.856,5.3,5.3,0,0,1-5.293-5.293,5.055,5.055,0,0,1,1.553-3.74,5.121,5.121,0,0,1,3.74-1.553,5.189,5.189,0,0,1,2.875.856l.491.319v-2.2l-.176-.088a7.076,7.076,0,0,0-3.19-.754" transform="translate(-477.898 -186.23)" fill="#4545d0"></path><path id="Path_81" data-name="Path 81" d="M657.471,226.271V224.4h-7.489v14.063h7.489v-1.87h-5.62v-4.246h4.441v-1.87h-4.441v-4.208Z" transform="translate(-541.306 -186.882)" fill="#4545d0"></path><path id="Path_82" data-name="Path 82" d="M261.092,366.122l2.07,3.583,2.067-3.583h.355l-.014.024v5.488h-.31v-4.95l-2.1,3.631-2.1-3.631v4.95h-.31v-5.488l-.014-.024Z" transform="translate(-217.142 -304.907)" fill="#4545d0"></path><path id="Path_83" data-name="Path 83" d="M300.815,366.122v.31h-2.446v2.291h2.446v.31h-2.446v2.291h2.446v.31h-2.756v-5.512Z" transform="translate(-248.224 -304.907)" fill="#4545d0"></path><path id="Path_84" data-name="Path 84" d="M322.671,366.129h.024a2.844,2.844,0,0,1,2.108.751,2.828,2.828,0,0,1,0,4,2.843,2.843,0,0,1-2.108.751h-.024v.007h-.31v-5.512h.31Zm0,.317v4.867h.024a2.542,2.542,0,0,0,1.884-.661,2.512,2.512,0,0,0,0-3.548,2.549,2.549,0,0,0-1.884-.658Z" transform="translate(-268.463 -304.907)" fill="#4545d0"></path><path id="Path_85" data-name="Path 85" d="M365.611,368.256a2.334,2.334,0,0,1-.93-.537,1.167,1.167,0,0,1,1.654-1.647.98.98,0,0,1,.262.41l-.279.11a.853.853,0,0,0-.2-.31A.859.859,0,0,0,364.9,367.5a2.3,2.3,0,0,0,.648.424,2.734,2.734,0,0,1,1.113.665A1.631,1.631,0,1,1,363.895,370l.293-.107a1.329,1.329,0,1,0,2.26-1.1,2.522,2.522,0,0,0-.837-.544" transform="translate(-303.053 -304.582)" fill="#4545d0"></path><path id="Path_86" data-name="Path 86" d="M389.887,369.722v1.912h-.31v-5.512h1.447a1.824,1.824,0,0,1,1.071.527,1.8,1.8,0,0,1-1.271,3.073Zm0-3.286v2.973h.937a1.486,1.486,0,0,0,0-2.973Z" transform="translate(-324.441 -304.907)" fill="#4545d0"></path><path id="Path_87" data-name="Path 87" d="M412.413,368.888H410.5L409.737,371h-.331l2.053-5.639,2.05,5.639h-.327Zm-.114-.31-.841-2.312-.841,2.312Z" transform="translate(-340.954 -304.273)" fill="#4545d0"></path><path id="Path_88" data-name="Path 88" d="M332.934,7.328c0-.106,0-.213-.012-.319l-.025-.319c-.008-.106-.026-.212-.038-.317l-.021-.159-.027-.158a9.342,9.342,0,0,0-.3-1.246c-.061-.205-.134-.406-.205-.608s-.157-.4-.244-.593a12.1,12.1,0,0,0-.578-1.144c-.213-.371-.446-.729-.693-1.079-.126-.174-.255-.344-.39-.512-.067-.084-.136-.168-.206-.25L330.087.5c-.038-.042-.072-.08-.118-.128L329.61,0h0l-.359.373c-.046.047-.08.085-.118.128l-.108.124c-.071.082-.139.166-.206.25-.135.167-.265.338-.39.512-.247.349-.481.708-.693,1.079a12.15,12.15,0,0,0-.579,1.144c-.087.2-.166.394-.244.593s-.144.4-.205.608a9.343,9.343,0,0,0-.3,1.246l-.027.158-.021.159c-.013.106-.031.211-.038.317l-.025.319c-.009.106-.009.213-.012.319-.009.212,0,.425.008.636l.027.317.015.158.023.157a7.155,7.155,0,0,0,.279,1.225,10.306,10.306,0,0,1,.1-2.45,9.91,9.91,0,0,1,.265-1.179c.029-.1.056-.193.086-.288l.094-.286c.031-.095.069-.188.1-.283l.052-.141.056-.139a13.519,13.519,0,0,1,1.095-2.136c.213-.339.437-.67.677-.99.119-.161.241-.319.367-.472l.041-.048.033.039.033-.039.041.048c.126.153.248.312.367.472.24.32.465.651.677.99a13.5,13.5,0,0,1,1.095,2.136l.056.139.052.141c.034.094.072.188.1.283l.094.286c.031.1.057.192.086.288a9.892,9.892,0,0,1,.265,1.179,10.309,10.309,0,0,1,.1,2.45,7.143,7.143,0,0,0,.279-1.225l.023-.157.015-.158.027-.317c.005-.211.017-.424.008-.636" transform="translate(-271.728)" fill="#4545d0"></path><path id="Path_89" data-name="Path 89" d="M288.6,18.555c-.47.14-.892.3-1.325.475s-.852.362-1.266.565-.824.417-1.228.641l-.6.352-.585.37a20.98,20.98,0,0,0-2.214,1.663,22.169,22.169,0,0,0-1.971,1.944,19.44,19.44,0,0,0-1.673,2.2,18.942,18.942,0,0,0-1.326,2.418,18.678,18.678,0,0,0-1.482,5.242,18.678,18.678,0,0,0-1.482-5.242,18.962,18.962,0,0,0-1.326-2.418,19.458,19.458,0,0,0-1.673-2.2,22.169,22.169,0,0,0-1.971-1.944,20.986,20.986,0,0,0-2.214-1.663l-.585-.37-.6-.352c-.4-.223-.811-.441-1.228-.641s-.838-.39-1.266-.565-.855-.335-1.325-.475l-.631-.188.072.637.1.871c.019.145.028.291.055.434l.08.429c.057.285.1.574.17.855l.214.843c.032.141.076.28.122.417l.134.413c.089.275.175.551.283.818l.309.808.344.792a28.606,28.606,0,0,0,1.613,3.038c.153.242.3.487.457.726s.315.477.483.709q.487.7,1.035,1.363c-.606-.965-1.148-1.963-1.659-2.973s-.965-2.045-1.365-3.1a24.944,24.944,0,0,1-1-3.207l-.182-.816c-.061-.272-.091-.549-.138-.822l-.065-.411c-.022-.137-.026-.276-.039-.413l-.014-.166c.2.077.411.159.611.243.407.172.811.354,1.208.553a24.429,24.429,0,0,1,2.311,1.315,22.14,22.14,0,0,1,2.145,1.571,21.346,21.346,0,0,1,1.947,1.811,22.66,22.66,0,0,1,1.7,2.05l.381.548c.13.181.238.376.361.561.249.371.455.766.68,1.153a23.6,23.6,0,0,1,1.949,5.013v.007s0,0,0-.007a23.6,23.6,0,0,1,1.949-5.013c.224-.387.431-.782.68-1.153.123-.186.231-.381.361-.561l.381-.548A22.614,22.614,0,0,1,280,25.1a21.32,21.32,0,0,1,1.947-1.811,22.15,22.15,0,0,1,2.145-1.571,24.4,24.4,0,0,1,2.311-1.315c.4-.2.8-.382,1.208-.553.2-.084.406-.166.611-.243l-.014.166c-.014.138-.018.276-.04.413l-.065.411c-.047.274-.077.55-.138.822l-.182.816a24.954,24.954,0,0,1-1,3.207c-.4,1.052-.863,2.083-1.365,3.1s-1.053,2.008-1.658,2.973q.547-.657,1.035-1.363c.168-.232.322-.472.483-.709s.3-.484.457-.726a28.565,28.565,0,0,0,1.613-3.038l.344-.792.309-.808c.108-.268.194-.543.283-.818l.134-.413c.046-.137.09-.275.122-.417l.214-.843c.072-.281.112-.57.17-.855l.08-.429c.027-.143.036-.289.055-.434l.1-.871.072-.637Z" transform="translate(-217.058 -15.296)" fill="#4545d0"></path><path id="Path_90" data-name="Path 90" d="M328.635,108.55a3.516,3.516,0,0,1,3.516-3.515,3.516,3.516,0,0,1-3.516-3.516,3.516,3.516,0,0,1-3.516,3.516,3.516,3.516,0,0,1,3.516,3.515" transform="translate(-270.761 -84.545)" fill="#4545d0"></path><path id="Path_91" data-name="Path 91" d="M272.762,120.192a11.235,11.235,0,0,0-.88-3.568,16.282,16.282,0,0,0-.778-1.631c-.141-.265-.295-.522-.446-.78s-.312-.509-.477-.758q-.488-.75-1.023-1.462c-.357-.475-.728-.936-1.11-1.389s-.772-.895-1.18-1.322-.819-.849-1.253-1.246c.783.88,1.512,1.806,2.205,2.753.346.475.676.96,1,1.45s.629.988.918,1.5c.147.253.282.511.421.768s.266.519.387.783.242.529.357.795l.163.4c.055.133.1.271.151.406a10.879,10.879,0,0,1,.643,2.861c-.422-.012-.85-.033-1.273-.058q-.867-.053-1.732-.136c-1.152-.111-2.3-.269-3.426-.486a18.955,18.955,0,0,1-3.279-.914,8.614,8.614,0,0,1-1.467-.736,4.013,4.013,0,0,1-1.117-1.025l-1.126.356s0,.011,0,.016,0,.021,0,.033-.005.048-.01.074c-.006.051-.019.1-.028.157a2.935,2.935,0,0,1-.09.317,2.781,2.781,0,0,1-.287.6,2.847,2.847,0,0,1-.416.516,3.04,3.04,0,0,1-.249.223,1.413,1.413,0,0,1-.135.1l-.137.1-.291.549c0,.005,0,.016,0,.022l0,.042c0,.029-.006.059-.011.09a1.546,1.546,0,0,1-.038.18,1.226,1.226,0,0,1-.132.314.8.8,0,0,1-.446.363,1.167,1.167,0,0,1-.336.065c-.06.008-.128,0-.192,0s-.135-.008-.2-.015a4.446,4.446,0,0,1-.864-.207l-.207-.069-.207.069a4.445,4.445,0,0,1-.864.207q-.1.01-.2.015c-.065,0-.132,0-.192,0a1.167,1.167,0,0,1-.336-.065.8.8,0,0,1-.446-.363,1.228,1.228,0,0,1-.132-.314,1.553,1.553,0,0,1-.038-.18c-.005-.03-.009-.061-.011-.09l0-.042c0-.006,0-.017,0-.022l-.291-.549-.137-.1a1.417,1.417,0,0,1-.135-.1,3.045,3.045,0,0,1-.249-.223,2.848,2.848,0,0,1-.416-.516,2.78,2.78,0,0,1-.287-.6,2.935,2.935,0,0,1-.09-.317c-.01-.053-.022-.106-.028-.157,0-.026-.007-.051-.01-.074s0-.024,0-.033,0-.013,0-.016l-1.126-.356a4.013,4.013,0,0,1-1.117,1.025,8.613,8.613,0,0,1-1.467.736,18.956,18.956,0,0,1-3.279.914c-1.128.217-2.274.375-3.426.486q-.864.082-1.732.136c-.423.025-.851.045-1.273.058a10.886,10.886,0,0,1,.643-2.861c.051-.135.1-.273.151-.406l.163-.4c.116-.266.231-.532.357-.795s.255-.523.387-.783.274-.515.421-.768q.433-.762.918-1.5c.321-.49.651-.975,1-1.45.694-.948,1.422-1.873,2.205-2.753-.434.4-.847.819-1.253,1.246s-.8.871-1.18,1.322-.753.914-1.11,1.389-.7.962-1.023,1.462c-.165.248-.319.5-.477.758s-.3.516-.446.78a16.288,16.288,0,0,0-.778,1.631,11.235,11.235,0,0,0-.88,3.568l-.029.452.464.012c.6.015,1.188.012,1.781,0s1.183-.037,1.774-.076a34.769,34.769,0,0,0,3.541-.4,19.109,19.109,0,0,0,3.505-.9,9.741,9.741,0,0,0,1.691-.814,6.348,6.348,0,0,0,.642-.458,3.88,3.88,0,0,0,.311.616,4.142,4.142,0,0,0,.588.747,4.237,4.237,0,0,0,.348.318,1.04,1.04,0,0,0,.114.089.007.007,0,0,0,0,0,2.772,2.772,0,0,0,.069.329,2.555,2.555,0,0,0,.269.641,2.152,2.152,0,0,0,.477.56,2.117,2.117,0,0,0,.639.358,2.431,2.431,0,0,0,.667.135c.11.012.214.007.32.008s.206-.012.308-.022a5.22,5.22,0,0,0,.918-.2l.01,0,.01,0a5.219,5.219,0,0,0,.918.2c.1.01.2.018.308.022s.21,0,.32-.008a2.431,2.431,0,0,0,.667-.135,2.117,2.117,0,0,0,.639-.358,2.153,2.153,0,0,0,.477-.56,2.556,2.556,0,0,0,.269-.641,2.772,2.772,0,0,0,.069-.329.007.007,0,0,0,0,0,1.037,1.037,0,0,0,.114-.089,4.232,4.232,0,0,0,.348-.318,4.144,4.144,0,0,0,.588-.747,3.885,3.885,0,0,0,.311-.616,6.341,6.341,0,0,0,.642.458,9.739,9.739,0,0,0,1.691.814,19.11,19.11,0,0,0,3.505.9,34.769,34.769,0,0,0,3.541.4c.591.039,1.182.063,1.774.076s1.178.016,1.781,0l.464-.012Z" transform="translate(-196.474 -89.973)" fill="#4545d0"></path></g></g></svg>