<svg xmlns="http://www.w3.org/2000/svg" width="26.639" height="14.699" viewBox="0 0 26.639 14.699">
  <g id="Group_5558" data-name="Group 5558" transform="translate(-892.137 -1640.995)">
    <path id="flecha-derecha" d="M24.253,4.412,20.194.31a1.049,1.049,0,0,0-1.49,0h0a1.049,1.049,0,0,0,0,1.479l3.735,3.766H1.049A1.049,1.049,0,0,0,0,6.6H0A1.049,1.049,0,0,0,1.049,7.653H22.5L18.7,11.44a1.049,1.049,0,0,0,0,1.49h0a1.049,1.049,0,0,0,1.49,0l4.06-4.07A3.147,3.147,0,0,0,24.253,4.412Z" transform="matrix(1, -0.017, 0.017, 1, 892.646, 1641.947)" fill="#4545d0" stroke="#4545d0" stroke-width="1"/>
  </g>
</svg>
