<svg xmlns="http://www.w3.org/2000/svg" xmlns:xlink="http://www.w3.org/1999/xlink" width="20.003" height="20" viewBox="0 0 20.003 20">
  <defs>
    <clipPath id="clip-path">
      <rect id="Rectangle_81" data-name="Rectangle 81" width="20.003" height="20" transform="translate(0 0)" fill="#fff"/>
    </clipPath>
  </defs>
  <g id="Group_5557" data-name="Group 5557" transform="translate(0 0)">
    <g id="Group_82" data-name="Group 82" transform="translate(0 0)" clip-path="url(#clip-path)">
      <path id="Path_42" data-name="Path 42" d="M18.986,20a1.918,1.918,0,0,1-.505-.391q-2.245-2.25-4.494-4.5c-.187-.187-.189-.189-.4-.021a8.143,8.143,0,0,1-3.839,1.66,8.183,8.183,0,0,1-6.251-1.51A8.115,8.115,0,0,1,.312,10.652a8.152,8.152,0,0,1,1.3-7.147A8.1,8.1,0,0,1,6.666.2a8.133,8.133,0,0,1,6.74,1.449,8.136,8.136,0,0,1,3.347,5.474,8.219,8.219,0,0,1-1.591,6.364c-.281.379-.283.261.035.58q2.2,2.21,4.412,4.413a1.918,1.918,0,0,1,.392.5c0,.306,0,.611,0,.917,0,.084-.016.1-.1.1-.306-.006-.611,0-.917,0M1.6,8.427A6.829,6.829,0,1,0,8.432,1.606,6.82,6.82,0,0,0,1.6,8.427" transform="translate(0 0)" fill="#fff"/>
    </g>
  </g>
</svg>
