<svg xmlns="http://www.w3.org/2000/svg" width="26.639" height="14.699" viewBox="0 0 26.639 14.699">
  <g id="Group_5557" data-name="Group 5557" transform="translate(-16.224 -22.995)">
    <path id="flecha-derecha" d="M24.253,8.828l-4.06,4.1a1.049,1.049,0,0,1-1.49,0h0a1.049,1.049,0,0,1,0-1.479l3.735-3.766H1.049A1.049,1.049,0,0,1,0,6.636H0A1.049,1.049,0,0,1,1.049,5.587H22.5L18.7,1.8a1.049,1.049,0,0,1,0-1.49h0a1.049,1.049,0,0,1,1.49,0l4.06,4.07A3.147,3.147,0,0,1,24.253,8.828Z" transform="matrix(-1, -0.017, 0.017, -1, 42.123, 37.185)" fill="#4545d0" stroke="#4545d0" stroke-width="1"/>
  </g>
</svg>
